solid Visualization Toolkit generated SLA File
 facet normal 0 -1 0
  outer loop
   vertex -0.0069499998353421688 -0.0074499999172985554 3.1974422559956582e-18
   vertex -0.0030499999411404133 -0.0074499999172985554 2.3314683202799655e-18
   vertex -0.0069499998353421688 -0.0074499999172985554 0.05000000074505806
  endloop
 endfacet
 facet normal 0 -1 0
  outer loop
   vertex -0.0069499998353421688 -0.0074499999172985554 0.05000000074505806
   vertex -0.0030499999411404133 -0.0074499999172985554 2.3314683202799655e-18
   vertex -0.0030499999411404133 -0.0074499999172985554 0.05000000074505806
  endloop
 endfacet
 facet normal 1 0 0
  outer loop
   vertex -0.0025499998591840267 -0.0069499998353421688 2.2204459996194763e-18
   vertex -0.0025499998591840267 4.9999998736893758e-05 2.2204459996194763e-18
   vertex -0.0025499998591840267 -0.0069499998353421688 0.05000000074505806
  endloop
 endfacet
 facet normal 1 0 -0
  outer loop
   vertex -0.0025499998591840267 -0.0069499998353421688 0.05000000074505806
   vertex -0.0025499998591840267 4.9999998736893758e-05 2.2204459996194763e-18
   vertex -0.0025499998591840267 4.9999998736893758e-05 0.05000000074505806
  endloop
 endfacet
 facet normal 0 -1 0
  outer loop
   vertex -0.0020499997772276402 0.00055000005522742867 2.1094236789589872e-18
   vertex 0.0069499998353421688 0.00055000005522742867 1.1102232066048913e-19
   vertex -0.0020499997772276402 0.00055000005522742867 0.05000000074505806
  endloop
 endfacet
 facet normal 0 -1 0
  outer loop
   vertex -0.0020499997772276402 0.00055000005522742867 0.05000000074505806
   vertex 0.0069499998353421688 0.00055000005522742867 1.1102232066048913e-19
   vertex 0.0069499998353421688 0.00055000005522742867 0.05000000074505806
  endloop
 endfacet
 facet normal 1 0 0
  outer loop
   vertex 0.0074499999172985554 0.0010500001953914762 0
   vertex 0.0074499999172985554 0.0069499998353421688 0
   vertex 0.0074499999172985554 0.0010500001953914762 0.05000000074505806
  endloop
 endfacet
 facet normal 1 0 -0
  outer loop
   vertex 0.0074499999172985554 0.0010500001953914762 0.05000000074505806
   vertex 0.0074499999172985554 0.0069499998353421688 0
   vertex 0.0074499999172985554 0.0069499998353421688 0.05000000074505806
  endloop
 endfacet
 facet normal -0 1 0
  outer loop
   vertex 0.0069499998353421688 0.0074499999172985554 1.1102232066048913e-19
   vertex -0.0069499998353421688 0.0074499999172985554 3.1974422559956582e-18
   vertex 0.0069499998353421688 0.0074499999172985554 0.05000000074505806
  endloop
 endfacet
 facet normal 0 1 0
  outer loop
   vertex 0.0069499998353421688 0.0074499999172985554 0.05000000074505806
   vertex -0.0069499998353421688 0.0074499999172985554 3.1974422559956582e-18
   vertex -0.0069499998353421688 0.0074499999172985554 0.05000000074505806
  endloop
 endfacet
 facet normal -1 -0 0
  outer loop
   vertex -0.0074499999172985554 -0.0069499998353421688 0.05000000074505806
   vertex -0.0074499999172985554 0.0069499998353421688 0.05000000074505806
   vertex -0.0074499999172985554 -0.0069499998353421688 3.3084645766561473e-18
  endloop
 endfacet
 facet normal -1 0 -0
  outer loop
   vertex -0.0074499999172985554 -0.0069499998353421688 3.3084645766561473e-18
   vertex -0.0074499999172985554 0.0069499998353421688 0.05000000074505806
   vertex -0.0074499999172985554 0.0069499998353421688 3.3084645766561473e-18
  endloop
 endfacet
 facet normal 0 0 1
  outer loop
   vertex -0.0025499998591840267 4.9999998736893758e-05 0.05000000074505806
   vertex -0.0025424039922654629 0.00013682394637726247 0.05000000074505806
   vertex -0.0074499999172985554 0.0069499998353421688 0.05000000074505806
  endloop
 endfacet
 facet normal 0 -0 1
  outer loop
   vertex -0.0074499999172985554 0.0069499998353421688 0.05000000074505806
   vertex -0.0025424039922654629 0.00013682394637726247 0.05000000074505806
   vertex -0.0025198464281857014 0.00022100991918705404 0.05000000074505806
  endloop
 endfacet
 facet normal 0 -0 1
  outer loop
   vertex -0.0074499999172985554 0.0069499998353421688 0.05000000074505806
   vertex -0.0025198464281857014 0.00022100991918705404 0.05000000074505806
   vertex -0.0024830126203596592 0.00030000004335306585 0.05000000074505806
  endloop
 endfacet
 facet normal 0 0 1
  outer loop
   vertex -0.0022210101597011089 0.00051984615856781602 0.05000000074505806
   vertex -0.0021368241868913174 0.00054240372264757752 0.05000000074505806
   vertex -0.0069499998353421688 0.0074499999172985554 0.05000000074505806
  endloop
 endfacet
 facet normal 0 -0 1
  outer loop
   vertex -0.0069499998353421688 0.0074499999172985554 0.05000000074505806
   vertex -0.0021368241868913174 0.00054240372264757752 0.05000000074505806
   vertex -0.0020499997772276402 0.00055000005522742867 0.05000000074505806
  endloop
 endfacet
 facet normal 0 0 1
  outer loop
   vertex -0.007036824245005846 -0.0074424040503799915 0.05000000074505806
   vertex -0.0069499998353421688 -0.0074499999172985554 0.05000000074505806
   vertex -0.0074499999172985554 -0.0069499998353421688 0.05000000074505806
  endloop
 endfacet
 facet normal 0 0 1
  outer loop
   vertex -0.0074499999172985554 -0.0069499998353421688 0.05000000074505806
   vertex -0.0069499998353421688 -0.0074499999172985554 0.05000000074505806
   vertex -0.0074499999172985554 0.0069499998353421688 0.05000000074505806
  endloop
 endfacet
 facet normal 0 0 1
  outer loop
   vertex -0.0025499998591840267 4.9999998736893758e-05 0.05000000074505806
   vertex -0.0074499999172985554 0.0069499998353421688 0.05000000074505806
   vertex -0.0025499998591840267 -0.0069499998353421688 0.05000000074505806
  endloop
 endfacet
 facet normal 0 0 1
  outer loop
   vertex -0.0025499998591840267 -0.0069499998353421688 0.05000000074505806
   vertex -0.0074499999172985554 0.0069499998353421688 0.05000000074505806
   vertex -0.0069499998353421688 -0.0074499999172985554 0.05000000074505806
  endloop
 endfacet
 facet normal 0 0 1
  outer loop
   vertex -0.0025499998591840267 -0.0069499998353421688 0.05000000074505806
   vertex -0.0069499998353421688 -0.0074499999172985554 0.05000000074505806
   vertex -0.0030499999411404133 -0.0074499999172985554 0.05000000074505806
  endloop
 endfacet
 facet normal -0 -0 1
  outer loop
   vertex -0.00741984648630023 -0.0071210102178156376 0.05000000074505806
   vertex -0.0073830126784741879 -0.0072000003419816494 0.05000000074505806
   vertex -0.0071210102178156376 -0.00741984648630023 0.05000000074505806
  endloop
 endfacet
 facet normal -0 0 1
  outer loop
   vertex -0.0071210102178156376 0.00741984648630023 0.05000000074505806
   vertex -0.0072000003419816494 0.0073830126784741879 0.05000000074505806
   vertex -0.0023000002838671207 0.00048301284550689161 0.05000000074505806
  endloop
 endfacet
 facet normal -0 0 1
  outer loop
   vertex -0.0072000003419816494 0.0073830126784741879 0.05000000074505806
   vertex -0.0072713936679065228 0.0073330220766365528 0.05000000074505806
   vertex -0.0023000002838671207 0.00048301284550689161 0.05000000074505806
  endloop
 endfacet
 facet normal 0 0 1
  outer loop
   vertex -0.0023000002838671207 0.00048301284550689161 0.05000000074505806
   vertex -0.0072713936679065228 0.0073330220766365528 0.05000000074505806
   vertex -0.0073330220766365528 0.0072713936679065228 0.05000000074505806
  endloop
 endfacet
 facet normal 0 0 1
  outer loop
   vertex -0.0023000002838671207 0.00048301284550689161 0.05000000074505806
   vertex -0.0073330220766365528 0.0072713936679065228 0.05000000074505806
   vertex -0.0073830126784741879 0.0071999998763203621 0.05000000074505806
  endloop
 endfacet
 facet normal 0 0 1
  outer loop
   vertex 0.007036824245005846 0.0074424040503799915 0.05000000074505806
   vertex 0.0069499998353421688 0.0074499999172985554 0.05000000074505806
   vertex 0.0074499999172985554 0.0069499998353421688 0.05000000074505806
  endloop
 endfacet
 facet normal 0 0 1
  outer loop
   vertex 0.0074499999172985554 0.0069499998353421688 0.05000000074505806
   vertex 0.0069499998353421688 0.0074499999172985554 0.05000000074505806
   vertex 0.0074499999172985554 0.0010500001953914762 0.05000000074505806
  endloop
 endfacet
 facet normal 0 0 1
  outer loop
   vertex -0.0022210101597011089 0.00051984615856781602 0.05000000074505806
   vertex -0.0069499998353421688 0.0074499999172985554 0.05000000074505806
   vertex -0.0023000002838671207 0.00048301284550689161 0.05000000074505806
  endloop
 endfacet
 facet normal 0 0 1
  outer loop
   vertex -0.0023000002838671207 0.00048301284550689161 0.05000000074505806
   vertex -0.0069499998353421688 0.0074499999172985554 0.05000000074505806
   vertex -0.007036824245005846 0.0074424040503799915 0.05000000074505806
  endloop
 endfacet
 facet normal 0 0 1
  outer loop
   vertex -0.0023000002838671207 0.00048301284550689161 0.05000000074505806
   vertex -0.007036824245005846 0.0074424040503799915 0.05000000074505806
   vertex -0.0071210102178156376 0.00741984648630023 0.05000000074505806
  endloop
 endfacet
 facet normal 0 -0 1
  outer loop
   vertex 0.007036824245005846 0.00055759638780727983 0.05000000074505806
   vertex 0.0071210102178156376 0.00058015395188704133 0.05000000074505806
   vertex 0.0071999998763203621 0.0006169872940517962 0.05000000074505806
  endloop
 endfacet
 facet normal 0 0 1
  outer loop
   vertex 0.0073330220766365528 0.0007286063046194613 0.05000000074505806
   vertex 0.0073830126784741879 0.00080000009620562196 0.05000000074505806
   vertex 0.0069499998353421688 0.00055000005522742867 0.05000000074505806
  endloop
 endfacet
 facet normal 0 -0 1
  outer loop
   vertex 0.0069499998353421688 0.00055000005522742867 0.05000000074505806
   vertex 0.0073830126784741879 0.00080000009620562196 0.05000000074505806
   vertex 0.00741984648630023 0.00087899022037163377 0.05000000074505806
  endloop
 endfacet
 facet normal 0 0 1
  outer loop
   vertex -0.007036824245005846 -0.0074424040503799915 0.05000000074505806
   vertex -0.0074499999172985554 -0.0069499998353421688 0.05000000074505806
   vertex -0.0071210102178156376 -0.00741984648630023 0.05000000074505806
  endloop
 endfacet
 facet normal 0 0 1
  outer loop
   vertex -0.0071210102178156376 -0.00741984648630023 0.05000000074505806
   vertex -0.0074499999172985554 -0.0069499998353421688 0.05000000074505806
   vertex -0.0074424040503799915 -0.007036824245005846 0.05000000074505806
  endloop
 endfacet
 facet normal 0 0 1
  outer loop
   vertex -0.0071210102178156376 -0.00741984648630023 0.05000000074505806
   vertex -0.0074424040503799915 -0.007036824245005846 0.05000000074505806
   vertex -0.00741984648630023 -0.0071210102178156376 0.05000000074505806
  endloop
 endfacet
 facet normal -0 -0 1
  outer loop
   vertex -0.0073830126784741879 -0.0072000003419816494 0.05000000074505806
   vertex -0.0073330220766365528 -0.0072713936679065228 0.05000000074505806
   vertex -0.0071210102178156376 -0.00741984648630023 0.05000000074505806
  endloop
 endfacet
 facet normal 0 0 1
  outer loop
   vertex -0.0071210102178156376 -0.00741984648630023 0.05000000074505806
   vertex -0.0073330220766365528 -0.0072713936679065228 0.05000000074505806
   vertex -0.0072713936679065228 -0.0073330220766365528 0.05000000074505806
  endloop
 endfacet
 facet normal 0 0 1
  outer loop
   vertex -0.0071210102178156376 -0.00741984648630023 0.05000000074505806
   vertex -0.0072713936679065228 -0.0073330220766365528 0.05000000074505806
   vertex -0.0072000003419816494 -0.0073830126784741879 0.05000000074505806
  endloop
 endfacet
 facet normal 0 0 1
  outer loop
   vertex -0.0024830126203596592 0.00030000004335306585 0.05000000074505806
   vertex -0.0024330220185220242 0.00037139383493922651 0.05000000074505806
   vertex -0.0074499999172985554 0.0069499998353421688 0.05000000074505806
  endloop
 endfacet
 facet normal 0 -0 1
  outer loop
   vertex -0.0074499999172985554 0.0069499998353421688 0.05000000074505806
   vertex -0.0024330220185220242 0.00037139383493922651 0.05000000074505806
   vertex -0.0023713936097919941 0.00043302224366925657 0.05000000074505806
  endloop
 endfacet
 facet normal 0 0 1
  outer loop
   vertex -0.0074499999172985554 0.0069499998353421688 0.05000000074505806
   vertex -0.0023713936097919941 0.00043302224366925657 0.05000000074505806
   vertex -0.0074424040503799915 0.007036824245005846 0.05000000074505806
  endloop
 endfacet
 facet normal 0 -0 1
  outer loop
   vertex -0.0074424040503799915 0.007036824245005846 0.05000000074505806
   vertex -0.0023713936097919941 0.00043302224366925657 0.05000000074505806
   vertex -0.0023000002838671207 0.00048301284550689161 0.05000000074505806
  endloop
 endfacet
 facet normal 0 0 1
  outer loop
   vertex -0.0074424040503799915 0.007036824245005846 0.05000000074505806
   vertex -0.0023000002838671207 0.00048301284550689161 0.05000000074505806
   vertex -0.00741984648630023 0.0071210102178156376 0.05000000074505806
  endloop
 endfacet
 facet normal 0 0 1
  outer loop
   vertex -0.00741984648630023 0.0071210102178156376 0.05000000074505806
   vertex -0.0023000002838671207 0.00048301284550689161 0.05000000074505806
   vertex -0.0073830126784741879 0.0071999998763203621 0.05000000074505806
  endloop
 endfacet
 facet normal 0 0 1
  outer loop
   vertex 0.00741984648630023 0.00087899022037163377 0.05000000074505806
   vertex 0.0074424040503799915 0.00096317619318142533 0.05000000074505806
   vertex 0.0069499998353421688 0.00055000005522742867 0.05000000074505806
  endloop
 endfacet
 facet normal 0 -0 1
  outer loop
   vertex 0.0069499998353421688 0.00055000005522742867 0.05000000074505806
   vertex 0.0074424040503799915 0.00096317619318142533 0.05000000074505806
   vertex 0.0074499999172985554 0.0010500001953914762 0.05000000074505806
  endloop
 endfacet
 facet normal 0 0 1
  outer loop
   vertex 0.0069499998353421688 0.00055000005522742867 0.05000000074505806
   vertex 0.0074499999172985554 0.0010500001953914762 0.05000000074505806
   vertex -0.0020499997772276402 0.00055000005522742867 0.05000000074505806
  endloop
 endfacet
 facet normal 0 0 1
  outer loop
   vertex -0.0020499997772276402 0.00055000005522742867 0.05000000074505806
   vertex 0.0074499999172985554 0.0010500001953914762 0.05000000074505806
   vertex 0.0069499998353421688 0.0074499999172985554 0.05000000074505806
  endloop
 endfacet
 facet normal 0 0 1
  outer loop
   vertex -0.0020499997772276402 0.00055000005522742867 0.05000000074505806
   vertex 0.0069499998353421688 0.0074499999172985554 0.05000000074505806
   vertex -0.0069499998353421688 0.0074499999172985554 0.05000000074505806
  endloop
 endfacet
 facet normal 0 0 1
  outer loop
   vertex 0.00741984648630023 0.0071210102178156376 0.05000000074505806
   vertex 0.0073830126784741879 0.0071999998763203621 0.05000000074505806
   vertex 0.0071210102178156376 0.00741984648630023 0.05000000074505806
  endloop
 endfacet
 facet normal 0 -0 1
  outer loop
   vertex -0.0027286061085760593 -0.0073330220766365528 0.05000000074505806
   vertex -0.0026669776998460293 -0.0072713936679065228 0.05000000074505806
   vertex -0.0025575957261025906 -0.007036824245005846 0.05000000074505806
  endloop
 endfacet
 facet normal 0 0 1
  outer loop
   vertex -0.0025575957261025906 -0.007036824245005846 0.05000000074505806
   vertex -0.0026669776998460293 -0.0072713936679065228 0.05000000074505806
   vertex -0.0026169870980083942 -0.0072000003419816494 0.05000000074505806
  endloop
 endfacet
 facet normal 0 0 1
  outer loop
   vertex -0.0025575957261025906 -0.007036824245005846 0.05000000074505806
   vertex -0.0026169870980083942 -0.0072000003419816494 0.05000000074505806
   vertex -0.0025801542215049267 -0.0071210102178156376 0.05000000074505806
  endloop
 endfacet
 facet normal 0 0 1
  outer loop
   vertex 0.007036824245005846 0.00055759638780727983 0.05000000074505806
   vertex 0.0071999998763203621 0.0006169872940517962 0.05000000074505806
   vertex 0.0069499998353421688 0.00055000005522742867 0.05000000074505806
  endloop
 endfacet
 facet normal 0 -0 1
  outer loop
   vertex 0.0069499998353421688 0.00055000005522742867 0.05000000074505806
   vertex 0.0071999998763203621 0.0006169872940517962 0.05000000074505806
   vertex 0.0072713936679065228 0.00066697789588943124 0.05000000074505806
  endloop
 endfacet
 facet normal 0 -0 1
  outer loop
   vertex 0.0069499998353421688 0.00055000005522742867 0.05000000074505806
   vertex 0.0072713936679065228 0.00066697789588943124 0.05000000074505806
   vertex 0.0073330220766365528 0.0007286063046194613 0.05000000074505806
  endloop
 endfacet
 facet normal 0 -0 1
  outer loop
   vertex -0.0030499999411404133 -0.0074499999172985554 0.05000000074505806
   vertex -0.0029631755314767361 -0.0074424040503799915 0.05000000074505806
   vertex -0.0025499998591840267 -0.0069499998353421688 0.05000000074505806
  endloop
 endfacet
 facet normal 0 0 1
  outer loop
   vertex -0.0025499998591840267 -0.0069499998353421688 0.05000000074505806
   vertex -0.0029631755314767361 -0.0074424040503799915 0.05000000074505806
   vertex -0.0028789895586669445 -0.00741984648630023 0.05000000074505806
  endloop
 endfacet
 facet normal 0 0 1
  outer loop
   vertex -0.0025499998591840267 -0.0069499998353421688 0.05000000074505806
   vertex -0.0028789895586669445 -0.00741984648630023 0.05000000074505806
   vertex -0.0025575957261025906 -0.007036824245005846 0.05000000074505806
  endloop
 endfacet
 facet normal 0 0 1
  outer loop
   vertex -0.0025575957261025906 -0.007036824245005846 0.05000000074505806
   vertex -0.0028789895586669445 -0.00741984648630023 0.05000000074505806
   vertex -0.0028000003658235073 -0.0073830126784741879 0.05000000074505806
  endloop
 endfacet
 facet normal 0 0 1
  outer loop
   vertex -0.0025575957261025906 -0.007036824245005846 0.05000000074505806
   vertex -0.0028000003658235073 -0.0073830126784741879 0.05000000074505806
   vertex -0.0027286061085760593 -0.0073330220766365528 0.05000000074505806
  endloop
 endfacet
 facet normal 0 0 1
  outer loop
   vertex 0.007036824245005846 0.0074424040503799915 0.05000000074505806
   vertex 0.0074499999172985554 0.0069499998353421688 0.05000000074505806
   vertex 0.0071210102178156376 0.00741984648630023 0.05000000074505806
  endloop
 endfacet
 facet normal 0 0 1
  outer loop
   vertex 0.0071210102178156376 0.00741984648630023 0.05000000074505806
   vertex 0.0074499999172985554 0.0069499998353421688 0.05000000074505806
   vertex 0.0074424040503799915 0.007036824245005846 0.05000000074505806
  endloop
 endfacet
 facet normal 0 0 1
  outer loop
   vertex 0.0071210102178156376 0.00741984648630023 0.05000000074505806
   vertex 0.0074424040503799915 0.007036824245005846 0.05000000074505806
   vertex 0.00741984648630023 0.0071210102178156376 0.05000000074505806
  endloop
 endfacet
 facet normal 0 0 1
  outer loop
   vertex 0.0073830126784741879 0.0071999998763203621 0.05000000074505806
   vertex 0.0073330220766365528 0.0072713936679065228 0.05000000074505806
   vertex 0.0071210102178156376 0.00741984648630023 0.05000000074505806
  endloop
 endfacet
 facet normal 0 0 1
  outer loop
   vertex 0.0071210102178156376 0.00741984648630023 0.05000000074505806
   vertex 0.0073330220766365528 0.0072713936679065228 0.05000000074505806
   vertex 0.0072713936679065228 0.0073330220766365528 0.05000000074505806
  endloop
 endfacet
 facet normal 0 0 1
  outer loop
   vertex 0.0071210102178156376 0.00741984648630023 0.05000000074505806
   vertex 0.0072713936679065228 0.0073330220766365528 0.05000000074505806
   vertex 0.0071999998763203621 0.0073830126784741879 0.05000000074505806
  endloop
 endfacet
 facet normal -2.2204460492503131e-16 0 -1
  outer loop
   vertex -0.0023713936097919941 0.00043302224366925657 2.1807874455360808e-18
   vertex -0.0024330220185220242 0.00037139383493922651 2.1944717012046987e-18
   vertex -0.0074499999172985554 0.0069499998353421688 3.3084645766561473e-18
  endloop
 endfacet
 facet normal -2.2204460492503131e-16 0 -1
  outer loop
   vertex -0.0074499999172985554 0.0069499998353421688 3.3084645766561473e-18
   vertex -0.0024330220185220242 0.00037139383493922651 2.1944717012046987e-18
   vertex -0.0024830126203596592 0.00030000004335306585 2.2055718446397009e-18
  endloop
 endfacet
 facet normal -2.2204460492503131e-16 0 -1
  outer loop
   vertex -0.0074499999172985554 0.0069499998353421688 3.3084645766561473e-18
   vertex -0.0024830126203596592 0.00030000004335306585 2.2055718446397009e-18
   vertex -0.0025198464281857014 0.00022100991918705404 2.213750592946319e-18
  endloop
 endfacet
 facet normal -2.2204460492503131e-16 0 -1
  outer loop
   vertex -0.0023000002838671207 0.00048301284550689161 2.1649349426868083e-18
   vertex -0.0069499998353421688 0.0074499999172985554 3.1974422559956582e-18
   vertex -0.0022210101597011089 0.00051984615856781602 2.1473956117733871e-18
  endloop
 endfacet
 facet normal -2.2204460492503131e-16 0 -1
  outer loop
   vertex -0.0022210101597011089 0.00051984615856781602 2.1473956117733871e-18
   vertex -0.0069499998353421688 0.0074499999172985554 3.1974422559956582e-18
   vertex -0.0021368241868913174 0.00054240372264757752 2.1287025707006075e-18
  endloop
 endfacet
 facet normal -2.2204460492503131e-16 0 -1
  outer loop
   vertex -0.0025198464281857014 0.00022100991918705404 2.213750592946319e-18
   vertex -0.0025424039922654629 0.00013682394637726247 2.2187593783504807e-18
   vertex -0.0074499999172985554 0.0069499998353421688 3.3084645766561473e-18
  endloop
 endfacet
 facet normal -2.2204460492503131e-16 0 -1
  outer loop
   vertex -0.0074499999172985554 0.0069499998353421688 3.3084645766561473e-18
   vertex -0.0025424039922654629 0.00013682394637726247 2.2187593783504807e-18
   vertex -0.0025499998591840267 4.9999998736893758e-05 2.2204459996194763e-18
  endloop
 endfacet
 facet normal -2.2204460492503131e-16 0 -1
  outer loop
   vertex -0.0074499999172985554 0.0069499998353421688 3.3084645766561473e-18
   vertex -0.0025499998591840267 4.9999998736893758e-05 2.2204459996194763e-18
   vertex -0.0074499999172985554 -0.0069499998353421688 3.3084645766561473e-18
  endloop
 endfacet
 facet normal -2.2204460492503131e-16 -0 -1
  outer loop
   vertex -0.0074499999172985554 -0.0069499998353421688 3.3084645766561473e-18
   vertex -0.0025499998591840267 4.9999998736893758e-05 2.2204459996194763e-18
   vertex -0.0025499998591840267 -0.0069499998353421688 2.2204459996194763e-18
  endloop
 endfacet
 facet normal -2.2204460492503131e-16 0 -1
  outer loop
   vertex -0.0029631755314767361 -0.0074424040503799915 2.3121894285383452e-18
   vertex -0.0030499999411404133 -0.0074499999172985554 2.3314683202799655e-18
   vertex -0.0025499998591840267 -0.0069499998353421688 2.2204459996194763e-18
  endloop
 endfacet
 facet normal -2.2204460492503131e-16 0 -1
  outer loop
   vertex 0.0069499998353421688 0.0074499999172985554 1.1102232066048913e-19
   vertex 0.0069499998353421688 0.00055000005522742867 1.1102232066048913e-19
   vertex -0.0069499998353421688 0.0074499999172985554 3.1974422559956582e-18
  endloop
 endfacet
 facet normal -2.2204460492503131e-16 0 -1
  outer loop
   vertex -0.0069499998353421688 0.0074499999172985554 3.1974422559956582e-18
   vertex 0.0069499998353421688 0.00055000005522742867 1.1102232066048913e-19
   vertex -0.0020499997772276402 0.00055000005522742867 2.1094236789589872e-18
  endloop
 endfacet
 facet normal -2.2204460492503131e-16 0 -1
  outer loop
   vertex -0.0069499998353421688 0.0074499999172985554 3.1974422559956582e-18
   vertex -0.0020499997772276402 0.00055000005522742867 2.1094236789589872e-18
   vertex -0.0021368241868913174 0.00054240372264757752 2.1287025707006075e-18
  endloop
 endfacet
 facet normal -2.2204460492503131e-16 0 -1
  outer loop
   vertex 0.00741984648630023 0.00087899022037163377 6.6954066731573443e-21
   vertex 0.0073830126784741879 0.00080000009620562196 1.4874154979775405e-20
   vertex 0.0069499998353421688 0.00055000005522742867 1.1102232066048913e-19
  endloop
 endfacet
 facet normal -2.2204460492503131e-16 0 -1
  outer loop
   vertex -0.0023000002838671207 0.00048301284550689161 2.1649349426868083e-18
   vertex -0.00741984648630023 0.0071210102178156376 3.3017691699829899e-18
   vertex -0.0073830126784741879 0.0071999998763203621 3.2935904216763719e-18
  endloop
 endfacet
 facet normal -2.2204460492503131e-16 0 -1
  outer loop
   vertex 0.00741984648630023 0.00087899022037163377 6.6954066731573443e-21
   vertex 0.0069499998353421688 0.00055000005522742867 1.1102232066048913e-19
   vertex 0.0074424040503799915 0.00096317619318142533 1.6866212689956234e-21
  endloop
 endfacet
 facet normal -2.2204460492503131e-16 0 -1
  outer loop
   vertex -0.0023713936097919941 0.00043302224366925657 2.1807874455360808e-18
   vertex -0.0074499999172985554 0.0069499998353421688 3.3084645766561473e-18
   vertex -0.0023000002838671207 0.00048301284550689161 2.1649349426868083e-18
  endloop
 endfacet
 facet normal -2.2204460492503131e-16 0 -1
  outer loop
   vertex -0.0023000002838671207 0.00048301284550689161 2.1649349426868083e-18
   vertex -0.0074499999172985554 0.0069499998353421688 3.3084645766561473e-18
   vertex -0.0074424040503799915 0.007036824245005846 3.3067779553871517e-18
  endloop
 endfacet
 facet normal -2.2204460492503131e-16 0 -1
  outer loop
   vertex -0.0023000002838671207 0.00048301284550689161 2.1649349426868083e-18
   vertex -0.0074424040503799915 0.007036824245005846 3.3067779553871517e-18
   vertex -0.00741984648630023 0.0071210102178156376 3.3017691699829899e-18
  endloop
 endfacet
 facet normal -2.2204460492503131e-16 0 -1
  outer loop
   vertex -0.0073830126784741879 0.0071999998763203621 3.2935904216763719e-18
   vertex -0.0073330220766365528 0.0072713936679065228 3.2824902782413697e-18
   vertex -0.0023000002838671207 0.00048301284550689161 2.1649349426868083e-18
  endloop
 endfacet
 facet normal -2.2204460492503131e-16 0 -1
  outer loop
   vertex -0.0023000002838671207 0.00048301284550689161 2.1649349426868083e-18
   vertex -0.0073330220766365528 0.0072713936679065228 3.2824902782413697e-18
   vertex -0.0072713936679065228 0.0073330220766365528 3.2688060225727518e-18
  endloop
 endfacet
 facet normal -2.2204460492503131e-16 0 -1
  outer loop
   vertex -0.0023000002838671207 0.00048301284550689161 2.1649349426868083e-18
   vertex -0.0072713936679065228 0.0073330220766365528 3.2688060225727518e-18
   vertex -0.0072000003419816494 0.0073830126784741879 3.2529535197234793e-18
  endloop
 endfacet
 facet normal -2.2204460492503131e-16 0 -1
  outer loop
   vertex -0.0072000003419816494 0.0073830126784741879 3.2529535197234793e-18
   vertex -0.0071210102178156376 0.00741984648630023 3.235414188810058e-18
   vertex -0.0023000002838671207 0.00048301284550689161 2.1649349426868083e-18
  endloop
 endfacet
 facet normal -2.2204460492503131e-16 0 -1
  outer loop
   vertex -0.0023000002838671207 0.00048301284550689161 2.1649349426868083e-18
   vertex -0.0071210102178156376 0.00741984648630023 3.235414188810058e-18
   vertex -0.007036824245005846 0.0074424040503799915 3.2167211477372784e-18
  endloop
 endfacet
 facet normal -2.2204460492503131e-16 0 -1
  outer loop
   vertex -0.0023000002838671207 0.00048301284550689161 2.1649349426868083e-18
   vertex -0.007036824245005846 0.0074424040503799915 3.2167211477372784e-18
   vertex -0.0069499998353421688 0.0074499999172985554 3.1974422559956582e-18
  endloop
 endfacet
 facet normal -2.2204460492503131e-16 0 -1
  outer loop
   vertex -0.0025499998591840267 -0.0069499998353421688 2.2204459996194763e-18
   vertex -0.0030499999411404133 -0.0074499999172985554 2.3314683202799655e-18
   vertex -0.0074499999172985554 -0.0069499998353421688 3.3084645766561473e-18
  endloop
 endfacet
 facet normal -2.2204460492503131e-16 0 -1
  outer loop
   vertex -0.0074499999172985554 -0.0069499998353421688 3.3084645766561473e-18
   vertex -0.0030499999411404133 -0.0074499999172985554 2.3314683202799655e-18
   vertex -0.0069499998353421688 -0.0074499999172985554 3.1974422559956582e-18
  endloop
 endfacet
 facet normal -2.2204460492503131e-16 0 -1
  outer loop
   vertex -0.0074499999172985554 -0.0069499998353421688 3.3084645766561473e-18
   vertex -0.0069499998353421688 -0.0074499999172985554 3.1974422559956582e-18
   vertex -0.007036824245005846 -0.0074424040503799915 3.2167211477372784e-18
  endloop
 endfacet
 facet normal -2.2204460492503131e-16 0 -1
  outer loop
   vertex 0.0074499999172985554 0.0069499998353421688 0
   vertex 0.0069499998353421688 0.0074499999172985554 1.1102232066048913e-19
   vertex 0.007036824245005846 0.0074424040503799915 9.1743428918868852e-20
  endloop
 endfacet
 facet normal -2.2204460492503131e-16 0 -1
  outer loop
   vertex 0.0069499998353421688 0.0074499999172985554 1.1102232066048913e-19
   vertex 0.0074499999172985554 0.0069499998353421688 0
   vertex 0.0069499998353421688 0.00055000005522742867 1.1102232066048913e-19
  endloop
 endfacet
 facet normal -2.2204460492503131e-16 -0 -1
  outer loop
   vertex 0.0069499998353421688 0.00055000005522742867 1.1102232066048913e-19
   vertex 0.0074499999172985554 0.0069499998353421688 0
   vertex 0.0074499999172985554 0.0010500001953914762 0
  endloop
 endfacet
 facet normal -2.2204460492503131e-16 0 -1
  outer loop
   vertex 0.0069499998353421688 0.00055000005522742867 1.1102232066048913e-19
   vertex 0.0074499999172985554 0.0010500001953914762 0
   vertex 0.0074424040503799915 0.00096317619318142533 1.6866212689956234e-21
  endloop
 endfacet
 facet normal -2.2204460492503131e-16 0 -1
  outer loop
   vertex 0.0069499998353421688 0.00055000005522742867 1.1102232066048913e-19
   vertex 0.0071999998763203621 0.0006169872940517962 5.5511160330244565e-20
   vertex 0.007036824245005846 0.00055759638780727983 9.1743428918868852e-20
  endloop
 endfacet
 facet normal -2.2204460492503131e-16 0 -1
  outer loop
   vertex 0.007036824245005846 0.00055759638780727983 9.1743428918868852e-20
   vertex 0.0071999998763203621 0.0006169872940517962 5.5511160330244565e-20
   vertex 0.0071210102178156376 0.00058015395188704133 7.3050387846089257e-20
  endloop
 endfacet
 facet normal -2.2204460492503131e-16 0 -1
  outer loop
   vertex -0.0029631755314767361 -0.0074424040503799915 2.3121894285383452e-18
   vertex -0.0025499998591840267 -0.0069499998353421688 2.2204459996194763e-18
   vertex -0.0028789895586669445 -0.00741984648630023 2.2934963874655656e-18
  endloop
 endfacet
 facet normal -2.2204460492503131e-16 0 -1
  outer loop
   vertex -0.0028789895586669445 -0.00741984648630023 2.2934963874655656e-18
   vertex -0.0025499998591840267 -0.0069499998353421688 2.2204459996194763e-18
   vertex -0.0025575957261025906 -0.007036824245005846 2.222132620888472e-18
  endloop
 endfacet
 facet normal -2.2204460492503131e-16 0 -1
  outer loop
   vertex -0.0028789895586669445 -0.00741984648630023 2.2934963874655656e-18
   vertex -0.0025575957261025906 -0.007036824245005846 2.222132620888472e-18
   vertex -0.0025801542215049267 -0.0071210102178156376 2.2271416130877868e-18
  endloop
 endfacet
 facet normal -2.2204460492503131e-16 0 -1
  outer loop
   vertex -0.007036824245005846 -0.0074424040503799915 3.2167211477372784e-18
   vertex -0.0071210102178156376 -0.00741984648630023 3.235414188810058e-18
   vertex -0.0074499999172985554 -0.0069499998353421688 3.3084645766561473e-18
  endloop
 endfacet
 facet normal -2.2204460492503131e-16 0 -1
  outer loop
   vertex -0.0074499999172985554 -0.0069499998353421688 3.3084645766561473e-18
   vertex -0.0071210102178156376 -0.00741984648630023 3.235414188810058e-18
   vertex -0.0072000003419816494 -0.0073830126784741879 3.2529535197234793e-18
  endloop
 endfacet
 facet normal -2.2204460492503131e-16 0 -1
  outer loop
   vertex -0.0074499999172985554 -0.0069499998353421688 3.3084645766561473e-18
   vertex -0.0072000003419816494 -0.0073830126784741879 3.2529535197234793e-18
   vertex -0.0072713936679065228 -0.0073330220766365528 3.2688060225727518e-18
  endloop
 endfacet
 facet normal -2.2204460492503131e-16 0 -1
  outer loop
   vertex 0.007036824245005846 0.0074424040503799915 9.1743428918868852e-20
   vertex 0.0071210102178156376 0.00741984648630023 7.3050387846089257e-20
   vertex 0.0074499999172985554 0.0069499998353421688 0
  endloop
 endfacet
 facet normal -2.2204460492503131e-16 0 -1
  outer loop
   vertex 0.0074499999172985554 0.0069499998353421688 0
   vertex 0.0071210102178156376 0.00741984648630023 7.3050387846089257e-20
   vertex 0.0071999998763203621 0.0073830126784741879 5.5511160330244565e-20
  endloop
 endfacet
 facet normal -2.2204460492503131e-16 0 -1
  outer loop
   vertex 0.0074499999172985554 0.0069499998353421688 0
   vertex 0.0071999998763203621 0.0073830126784741879 5.5511160330244565e-20
   vertex 0.0072713936679065228 0.0073330220766365528 3.9658554083395497e-20
  endloop
 endfacet
 facet normal -2.2204460492503131e-16 0 -1
  outer loop
   vertex 0.0073830126784741879 0.00080000009620562196 1.4874154979775405e-20
   vertex 0.0073330220766365528 0.0007286063046194613 2.5974298414777622e-20
   vertex 0.0069499998353421688 0.00055000005522742867 1.1102232066048913e-19
  endloop
 endfacet
 facet normal -2.2204460492503131e-16 0 -1
  outer loop
   vertex 0.0069499998353421688 0.00055000005522742867 1.1102232066048913e-19
   vertex 0.0073330220766365528 0.0007286063046194613 2.5974298414777622e-20
   vertex 0.0072713936679065228 0.00066697789588943124 3.9658554083395497e-20
  endloop
 endfacet
 facet normal -2.2204460492503131e-16 0 -1
  outer loop
   vertex 0.0069499998353421688 0.00055000005522742867 1.1102232066048913e-19
   vertex 0.0072713936679065228 0.00066697789588943124 3.9658554083395497e-20
   vertex 0.0071999998763203621 0.0006169872940517962 5.5511160330244565e-20
  endloop
 endfacet
 facet normal -2.2204460492503131e-16 0 -1
  outer loop
   vertex -0.0025801542215049267 -0.0071210102178156376 2.2271416130877868e-18
   vertex -0.0026169870980083942 -0.0072000003419816494 2.2353201545992517e-18
   vertex -0.0028789895586669445 -0.00741984648630023 2.2934963874655656e-18
  endloop
 endfacet
 facet normal -2.2204460492503131e-16 0 -1
  outer loop
   vertex -0.0028789895586669445 -0.00741984648630023 2.2934963874655656e-18
   vertex -0.0026169870980083942 -0.0072000003419816494 2.2353201545992517e-18
   vertex -0.0026669776998460293 -0.0072713936679065228 2.2464202980342539e-18
  endloop
 endfacet
 facet normal -2.2204460492503131e-16 0 -1
  outer loop
   vertex -0.0028789895586669445 -0.00741984648630023 2.2934963874655656e-18
   vertex -0.0026669776998460293 -0.0072713936679065228 2.2464202980342539e-18
   vertex -0.0028000003658235073 -0.0073830126784741879 2.2759572633472975e-18
  endloop
 endfacet
 facet normal -2.2204460492503131e-16 0 -1
  outer loop
   vertex -0.0028000003658235073 -0.0073830126784741879 2.2759572633472975e-18
   vertex -0.0026669776998460293 -0.0072713936679065228 2.2464202980342539e-18
   vertex -0.0027286061085760593 -0.0073330220766365528 2.2601045537028718e-18
  endloop
 endfacet
 facet normal -2.2204460492503131e-16 0 -1
  outer loop
   vertex -0.0072713936679065228 -0.0073330220766365528 3.2688060225727518e-18
   vertex -0.0073330220766365528 -0.0072713936679065228 3.2824902782413697e-18
   vertex -0.0074499999172985554 -0.0069499998353421688 3.3084645766561473e-18
  endloop
 endfacet
 facet normal -2.2204460492503131e-16 0 -1
  outer loop
   vertex -0.0074499999172985554 -0.0069499998353421688 3.3084645766561473e-18
   vertex -0.0073330220766365528 -0.0072713936679065228 3.2824902782413697e-18
   vertex -0.0073830126784741879 -0.0072000003419816494 3.2935904216763719e-18
  endloop
 endfacet
 facet normal -2.2204460492503131e-16 0 -1
  outer loop
   vertex -0.0074499999172985554 -0.0069499998353421688 3.3084645766561473e-18
   vertex -0.0073830126784741879 -0.0072000003419816494 3.2935904216763719e-18
   vertex -0.0074424040503799915 -0.007036824245005846 3.3067779553871517e-18
  endloop
 endfacet
 facet normal -2.2204460492503131e-16 0 -1
  outer loop
   vertex -0.0074424040503799915 -0.007036824245005846 3.3067779553871517e-18
   vertex -0.0073830126784741879 -0.0072000003419816494 3.2935904216763719e-18
   vertex -0.00741984648630023 -0.0071210102178156376 3.3017691699829899e-18
  endloop
 endfacet
 facet normal -2.2204460492503131e-16 0 -1
  outer loop
   vertex 0.0072713936679065228 0.0073330220766365528 3.9658554083395497e-20
   vertex 0.0073330220766365528 0.0072713936679065228 2.5974298414777622e-20
   vertex 0.0074499999172985554 0.0069499998353421688 0
  endloop
 endfacet
 facet normal -2.2204460492503131e-16 0 -1
  outer loop
   vertex 0.0074499999172985554 0.0069499998353421688 0
   vertex 0.0073330220766365528 0.0072713936679065228 2.5974298414777622e-20
   vertex 0.0073830126784741879 0.0071999998763203621 1.4874154979775405e-20
  endloop
 endfacet
 facet normal -2.2204460492503131e-16 0 -1
  outer loop
   vertex 0.0074499999172985554 0.0069499998353421688 0
   vertex 0.0073830126784741879 0.0071999998763203621 1.4874154979775405e-20
   vertex 0.0074424040503799915 0.007036824245005846 1.6866212689956234e-21
  endloop
 endfacet
 facet normal -2.2204460492503131e-16 0 -1
  outer loop
   vertex 0.0074424040503799915 0.007036824245005846 1.6866212689956234e-21
   vertex 0.0073830126784741879 0.0071999998763203621 1.4874154979775405e-20
   vertex 0.00741984648630023 0.0071210102178156376 6.6954066731573443e-21
  endloop
 endfacet
 facet normal -0.99619498164668685 -0.087152501639121485 0
  outer loop
   vertex -0.0074499999172985554 -0.0069499998353421688 0.05000000074505806
   vertex -0.0074499999172985554 -0.0069499998353421688 3.3084645766561473e-18
   vertex -0.0074424040503799915 -0.007036824245005846 3.3067779553871517e-18
  endloop
 endfacet
 facet normal -0.99619498164668685 -0.087152501639121485 0
  outer loop
   vertex -0.0074499999172985554 -0.0069499998353421688 0.05000000074505806
   vertex -0.0074424040503799915 -0.007036824245005846 3.3067779553871517e-18
   vertex -0.0074424040503799915 -0.007036824245005846 0.05000000074505806
  endloop
 endfacet
 facet normal -0.96592582442071906 -0.25881905207529521 0
  outer loop
   vertex -0.0074424040503799915 -0.007036824245005846 0.05000000074505806
   vertex -0.0074424040503799915 -0.007036824245005846 3.3067779553871517e-18
   vertex -0.00741984648630023 -0.0071210102178156376 3.3017691699829899e-18
  endloop
 endfacet
 facet normal -0.96592582442071906 -0.25881905207529521 0
  outer loop
   vertex -0.0074424040503799915 -0.007036824245005846 0.05000000074505806
   vertex -0.00741984648630023 -0.0071210102178156376 3.3017691699829899e-18
   vertex -0.00741984648630023 -0.0071210102178156376 0.05000000074505806
  endloop
 endfacet
 facet normal -0.90630731237254647 -0.42261927965966178 0
  outer loop
   vertex -0.00741984648630023 -0.0071210102178156376 0.05000000074505806
   vertex -0.00741984648630023 -0.0071210102178156376 3.3017691699829899e-18
   vertex -0.0073830126784741879 -0.0072000003419816494 3.2935904216763719e-18
  endloop
 endfacet
 facet normal -0.90630731237254647 -0.42261927965966178 0
  outer loop
   vertex -0.00741984648630023 -0.0071210102178156376 0.05000000074505806
   vertex -0.0073830126784741879 -0.0072000003419816494 3.2935904216763719e-18
   vertex -0.0073830126784741879 -0.0072000003419816494 0.05000000074505806
  endloop
 endfacet
 facet normal -0.81914958146318173 -0.57357995361474612 0
  outer loop
   vertex -0.0073830126784741879 -0.0072000003419816494 0.05000000074505806
   vertex -0.0073830126784741879 -0.0072000003419816494 3.2935904216763719e-18
   vertex -0.0073330220766365528 -0.0072713936679065228 3.2824902782413697e-18
  endloop
 endfacet
 facet normal -0.81914958146318173 -0.57357995361474612 0
  outer loop
   vertex -0.0073830126784741879 -0.0072000003419816494 0.05000000074505806
   vertex -0.0073330220766365528 -0.0072713936679065228 3.2824902782413697e-18
   vertex -0.0073330220766365528 -0.0072713936679065228 0.05000000074505806
  endloop
 endfacet
 facet normal -0.70710678118654746 -0.70710678118654746 0
  outer loop
   vertex -0.0073330220766365528 -0.0072713936679065228 0.05000000074505806
   vertex -0.0073330220766365528 -0.0072713936679065228 3.2824902782413697e-18
   vertex -0.0072713936679065228 -0.0073330220766365528 3.2688060225727518e-18
  endloop
 endfacet
 facet normal -0.70710678118654746 -0.70710678118654746 0
  outer loop
   vertex -0.0073330220766365528 -0.0072713936679065228 0.05000000074505806
   vertex -0.0072713936679065228 -0.0073330220766365528 3.2688060225727518e-18
   vertex -0.0072713936679065228 -0.0073330220766365528 0.05000000074505806
  endloop
 endfacet
 facet normal -0.57357995361474612 -0.81914958146318173 0
  outer loop
   vertex -0.0072713936679065228 -0.0073330220766365528 0.05000000074505806
   vertex -0.0072713936679065228 -0.0073330220766365528 3.2688060225727518e-18
   vertex -0.0072000003419816494 -0.0073830126784741879 3.2529535197234793e-18
  endloop
 endfacet
 facet normal -0.57357995361474612 -0.81914958146318173 0
  outer loop
   vertex -0.0072713936679065228 -0.0073330220766365528 0.05000000074505806
   vertex -0.0072000003419816494 -0.0073830126784741879 3.2529535197234793e-18
   vertex -0.0072000003419816494 -0.0073830126784741879 0.05000000074505806
  endloop
 endfacet
 facet normal -0.42261927965966178 -0.90630731237254647 0
  outer loop
   vertex -0.0072000003419816494 -0.0073830126784741879 0.05000000074505806
   vertex -0.0072000003419816494 -0.0073830126784741879 3.2529535197234793e-18
   vertex -0.0071210102178156376 -0.00741984648630023 3.235414188810058e-18
  endloop
 endfacet
 facet normal -0.42261927965966178 -0.90630731237254647 0
  outer loop
   vertex -0.0072000003419816494 -0.0073830126784741879 0.05000000074505806
   vertex -0.0071210102178156376 -0.00741984648630023 3.235414188810058e-18
   vertex -0.0071210102178156376 -0.00741984648630023 0.05000000074505806
  endloop
 endfacet
 facet normal -0.25881905207529521 -0.96592582442071906 0
  outer loop
   vertex -0.0071210102178156376 -0.00741984648630023 0.05000000074505806
   vertex -0.0071210102178156376 -0.00741984648630023 3.235414188810058e-18
   vertex -0.007036824245005846 -0.0074424040503799915 3.2167211477372784e-18
  endloop
 endfacet
 facet normal -0.25881905207529521 -0.96592582442071906 0
  outer loop
   vertex -0.0071210102178156376 -0.00741984648630023 0.05000000074505806
   vertex -0.007036824245005846 -0.0074424040503799915 3.2167211477372784e-18
   vertex -0.007036824245005846 -0.0074424040503799915 0.05000000074505806
  endloop
 endfacet
 facet normal -0.087152501639121485 -0.99619498164668685 0
  outer loop
   vertex -0.007036824245005846 -0.0074424040503799915 0.05000000074505806
   vertex -0.007036824245005846 -0.0074424040503799915 3.2167211477372784e-18
   vertex -0.0069499998353421688 -0.0074499999172985554 3.1974422559956582e-18
  endloop
 endfacet
 facet normal -0.087152501639121485 -0.99619498164668685 0
  outer loop
   vertex -0.007036824245005846 -0.0074424040503799915 0.05000000074505806
   vertex -0.0069499998353421688 -0.0074499999172985554 3.1974422559956582e-18
   vertex -0.0069499998353421688 -0.0074499999172985554 0.05000000074505806
  endloop
 endfacet
 facet normal 0.087152501639121485 -0.99619498164668685 0
  outer loop
   vertex -0.0030499999411404133 -0.0074499999172985554 0.05000000074505806
   vertex -0.0030499999411404133 -0.0074499999172985554 2.3314683202799655e-18
   vertex -0.0029631755314767361 -0.0074424040503799915 2.3121894285383452e-18
  endloop
 endfacet
 facet normal 0.087152501639121485 -0.99619498164668685 0
  outer loop
   vertex -0.0030499999411404133 -0.0074499999172985554 0.05000000074505806
   vertex -0.0029631755314767361 -0.0074424040503799915 2.3121894285383452e-18
   vertex -0.0029631755314767361 -0.0074424040503799915 0.05000000074505806
  endloop
 endfacet
 facet normal 0.25881905207529521 -0.96592582442071906 0
  outer loop
   vertex -0.0029631755314767361 -0.0074424040503799915 0.05000000074505806
   vertex -0.0029631755314767361 -0.0074424040503799915 2.3121894285383452e-18
   vertex -0.0028789895586669445 -0.00741984648630023 2.2934963874655656e-18
  endloop
 endfacet
 facet normal 0.25881905207529521 -0.96592582442071906 0
  outer loop
   vertex -0.0029631755314767361 -0.0074424040503799915 0.05000000074505806
   vertex -0.0028789895586669445 -0.00741984648630023 2.2934963874655656e-18
   vertex -0.0028789895586669445 -0.00741984648630023 0.05000000074505806
  endloop
 endfacet
 facet normal 0.42262337256175303 -0.90630540380410929 0
  outer loop
   vertex -0.0028789895586669445 -0.00741984648630023 0.05000000074505806
   vertex -0.0028789895586669445 -0.00741984648630023 2.2934963874655656e-18
   vertex -0.0028000003658235073 -0.0073830126784741879 2.2759572633472975e-18
  endloop
 endfacet
 facet normal 0.42262337256175303 -0.90630540380410929 0
  outer loop
   vertex -0.0028789895586669445 -0.00741984648630023 0.05000000074505806
   vertex -0.0028000003658235073 -0.0073830126784741879 2.2759572633472975e-18
   vertex -0.0028000003658235073 -0.0073830126784741879 0.05000000074505806
  endloop
 endfacet
 facet normal 0.57357493296369266 -0.81915309697009364 0
  outer loop
   vertex -0.0028000003658235073 -0.0073830126784741879 0.05000000074505806
   vertex -0.0028000003658235073 -0.0073830126784741879 2.2759572633472975e-18
   vertex -0.0027286061085760593 -0.0073330220766365528 2.2601045537028718e-18
  endloop
 endfacet
 facet normal 0.57357493296369266 -0.81915309697009364 0
  outer loop
   vertex -0.0028000003658235073 -0.0073830126784741879 0.05000000074505806
   vertex -0.0027286061085760593 -0.0073330220766365528 2.2601045537028718e-18
   vertex -0.0027286061085760593 -0.0073330220766365528 0.05000000074505806
  endloop
 endfacet
 facet normal 0.70710678118654746 -0.70710678118654746 0
  outer loop
   vertex -0.0027286061085760593 -0.0073330220766365528 0.05000000074505806
   vertex -0.0027286061085760593 -0.0073330220766365528 2.2601045537028718e-18
   vertex -0.0026669776998460293 -0.0072713936679065228 2.2464202980342539e-18
  endloop
 endfacet
 facet normal 0.70710678118654746 -0.70710678118654746 0
  outer loop
   vertex -0.0027286061085760593 -0.0073330220766365528 0.05000000074505806
   vertex -0.0026669776998460293 -0.0072713936679065228 2.2464202980342539e-18
   vertex -0.0026669776998460293 -0.0072713936679065228 0.05000000074505806
  endloop
 endfacet
 facet normal 0.81914958146318173 -0.57357995361474612 0
  outer loop
   vertex -0.0026669776998460293 -0.0072713936679065228 0.05000000074505806
   vertex -0.0026669776998460293 -0.0072713936679065228 2.2464202980342539e-18
   vertex -0.0026169870980083942 -0.0072000003419816494 2.2353201545992517e-18
  endloop
 endfacet
 facet normal 0.81914958146318173 -0.57357995361474612 0
  outer loop
   vertex -0.0026669776998460293 -0.0072713936679065228 0.05000000074505806
   vertex -0.0026169870980083942 -0.0072000003419816494 2.2353201545992517e-18
   vertex -0.0026169870980083942 -0.0072000003419816494 0.05000000074505806
  endloop
 endfacet
 facet normal 0.90631140521529108 -0.42261050244484522 0
  outer loop
   vertex -0.0026169870980083942 -0.0072000003419816494 0.05000000074505806
   vertex -0.0026169870980083942 -0.0072000003419816494 2.2353201545992517e-18
   vertex -0.0025801542215049267 -0.0071210102178156376 2.2271416130877868e-18
  endloop
 endfacet
 facet normal 0.90631140521529108 -0.42261050244484522 0
  outer loop
   vertex -0.0026169870980083942 -0.0072000003419816494 0.05000000074505806
   vertex -0.0025801542215049267 -0.0071210102178156376 2.2271416130877868e-18
   vertex -0.0025801542215049267 -0.0071210102178156376 0.05000000074505806
  endloop
 endfacet
 facet normal 0.96592315294423514 -0.25882902195516588 0
  outer loop
   vertex -0.0025801542215049267 -0.0071210102178156376 0.05000000074505806
   vertex -0.0025801542215049267 -0.0071210102178156376 2.2271416130877868e-18
   vertex -0.0025575957261025906 -0.007036824245005846 2.222132620888472e-18
  endloop
 endfacet
 facet normal 0.96592315294423514 -0.25882902195516588 0
  outer loop
   vertex -0.0025801542215049267 -0.0071210102178156376 0.05000000074505806
   vertex -0.0025575957261025906 -0.007036824245005846 2.222132620888472e-18
   vertex -0.0025575957261025906 -0.007036824245005846 0.05000000074505806
  endloop
 endfacet
 facet normal 0.99619498164668685 -0.087152501639121485 0
  outer loop
   vertex -0.0025575957261025906 -0.007036824245005846 0.05000000074505806
   vertex -0.0025575957261025906 -0.007036824245005846 2.222132620888472e-18
   vertex -0.0025499998591840267 -0.0069499998353421688 2.2204459996194763e-18
  endloop
 endfacet
 facet normal 0.99619498164668685 -0.087152501639121485 0
  outer loop
   vertex -0.0025575957261025906 -0.007036824245005846 0.05000000074505806
   vertex -0.0025499998591840267 -0.0069499998353421688 2.2204459996194763e-18
   vertex -0.0025499998591840267 -0.0069499998353421688 0.05000000074505806
  endloop
 endfacet
 facet normal 0.087157803899377689 -0.99619451776218759 0
  outer loop
   vertex -0.0020499997772276402 0.00055000005522742867 2.1094236789589872e-18
   vertex -0.0020499997772276402 0.00055000005522742867 0.05000000074505806
   vertex -0.0021368241868913174 0.00054240372264757752 2.1287025707006075e-18
  endloop
 endfacet
 facet normal 0.087157803899377689 -0.99619451776218759 0
  outer loop
   vertex -0.0021368241868913174 0.00054240372264757752 2.1287025707006075e-18
   vertex -0.0020499997772276402 0.00055000005522742867 0.05000000074505806
   vertex -0.0021368241868913174 0.00054240372264757752 0.05000000074505806
  endloop
 endfacet
 facet normal 0.25881905207529521 -0.96592582442071906 0
  outer loop
   vertex -0.0021368241868913174 0.00054240372264757752 2.1287025707006075e-18
   vertex -0.0021368241868913174 0.00054240372264757752 0.05000000074505806
   vertex -0.0022210101597011089 0.00051984615856781602 2.1473956117733871e-18
  endloop
 endfacet
 facet normal 0.25881905207529521 -0.96592582442071906 0
  outer loop
   vertex -0.0022210101597011089 0.00051984615856781602 2.1473956117733871e-18
   vertex -0.0021368241868913174 0.00054240372264757752 0.05000000074505806
   vertex -0.0022210101597011089 0.00051984615856781602 0.05000000074505806
  endloop
 endfacet
 facet normal 0.4226146167790964 -0.90630948670123568 0
  outer loop
   vertex -0.0022210101597011089 0.00051984615856781602 2.1473956117733871e-18
   vertex -0.0022210101597011089 0.00051984615856781602 0.05000000074505806
   vertex -0.0023000002838671207 0.00048301284550689161 2.1649349426868083e-18
  endloop
 endfacet
 facet normal 0.4226146167790964 -0.90630948670123568 0
  outer loop
   vertex -0.0023000002838671207 0.00048301284550689161 2.1649349426868083e-18
   vertex -0.0022210101597011089 0.00051984615856781602 0.05000000074505806
   vertex -0.0023000002838671207 0.00048301284550689161 0.05000000074505806
  endloop
 endfacet
 facet normal 0.57357995361474612 -0.81914958146318173 0
  outer loop
   vertex -0.0023000002838671207 0.00048301284550689161 2.1649349426868083e-18
   vertex -0.0023000002838671207 0.00048301284550689161 0.05000000074505806
   vertex -0.0023713936097919941 0.00043302224366925657 2.1807874455360808e-18
  endloop
 endfacet
 facet normal 0.57357995361474612 -0.81914958146318173 0
  outer loop
   vertex -0.0023713936097919941 0.00043302224366925657 2.1807874455360808e-18
   vertex -0.0023000002838671207 0.00048301284550689161 0.05000000074505806
   vertex -0.0023713936097919941 0.00043302224366925657 0.05000000074505806
  endloop
 endfacet
 facet normal 0.70710678118654746 -0.70710678118654746 0
  outer loop
   vertex -0.0023713936097919941 0.00043302224366925657 2.1807874455360808e-18
   vertex -0.0023713936097919941 0.00043302224366925657 0.05000000074505806
   vertex -0.0024330220185220242 0.00037139383493922651 2.1944717012046987e-18
  endloop
 endfacet
 facet normal 0.70710678118654746 -0.70710678118654746 0
  outer loop
   vertex -0.0024330220185220242 0.00037139383493922651 2.1944717012046987e-18
   vertex -0.0023713936097919941 0.00043302224366925657 0.05000000074505806
   vertex -0.0024330220185220242 0.00037139383493922651 0.05000000074505806
  endloop
 endfacet
 facet normal 0.81915133922817707 -0.57357744328092597 0
  outer loop
   vertex -0.0024330220185220242 0.00037139383493922651 2.1944717012046987e-18
   vertex -0.0024330220185220242 0.00037139383493922651 0.05000000074505806
   vertex -0.0024830126203596592 0.00030000004335306585 2.2055718446397009e-18
  endloop
 endfacet
 facet normal 0.81915133922817707 -0.57357744328092597 0
  outer loop
   vertex -0.0024830126203596592 0.00030000004335306585 2.2055718446397009e-18
   vertex -0.0024330220185220242 0.00037139383493922651 0.05000000074505806
   vertex -0.0024830126203596592 0.00030000004335306585 0.05000000074505806
  endloop
 endfacet
 facet normal 0.90630731237254647 -0.42261927965966178 0
  outer loop
   vertex -0.0024830126203596592 0.00030000004335306585 2.2055718446397009e-18
   vertex -0.0024830126203596592 0.00030000004335306585 0.05000000074505806
   vertex -0.0025198464281857014 0.00022100991918705404 2.213750592946319e-18
  endloop
 endfacet
 facet normal 0.90630731237254647 -0.42261927965966178 0
  outer loop
   vertex -0.0025198464281857014 0.00022100991918705404 2.213750592946319e-18
   vertex -0.0024830126203596592 0.00030000004335306585 0.05000000074505806
   vertex -0.0025198464281857014 0.00022100991918705404 0.05000000074505806
  endloop
 endfacet
 facet normal 0.96592582442071906 -0.25881905207529521 0
  outer loop
   vertex -0.0025198464281857014 0.00022100991918705404 2.213750592946319e-18
   vertex -0.0025198464281857014 0.00022100991918705404 0.05000000074505806
   vertex -0.0025424039922654629 0.00013682394637726247 2.2187593783504807e-18
  endloop
 endfacet
 facet normal 0.96592582442071906 -0.25881905207529521 0
  outer loop
   vertex -0.0025424039922654629 0.00013682394637726247 2.2187593783504807e-18
   vertex -0.0025198464281857014 0.00022100991918705404 0.05000000074505806
   vertex -0.0025424039922654629 0.00013682394637726247 0.05000000074505806
  endloop
 endfacet
 facet normal 0.99619494138151554 -0.087152961888158229 0
  outer loop
   vertex -0.0025424039922654629 0.00013682394637726247 2.2187593783504807e-18
   vertex -0.0025424039922654629 0.00013682394637726247 0.05000000074505806
   vertex -0.0025499998591840267 4.9999998736893758e-05 2.2204459996194763e-18
  endloop
 endfacet
 facet normal 0.99619494138151554 -0.087152961888158229 0
  outer loop
   vertex -0.0025499998591840267 4.9999998736893758e-05 2.2204459996194763e-18
   vertex -0.0025424039922654629 0.00013682394637726247 0.05000000074505806
   vertex -0.0025499998591840267 4.9999998736893758e-05 0.05000000074505806
  endloop
 endfacet
 facet normal 0.087157803899377689 -0.99619451776218759 0
  outer loop
   vertex 0.0069499998353421688 0.00055000005522742867 0.05000000074505806
   vertex 0.0069499998353421688 0.00055000005522742867 1.1102232066048913e-19
   vertex 0.007036824245005846 0.00055759638780727983 9.1743428918868852e-20
  endloop
 endfacet
 facet normal 0.087157803899377689 -0.99619451776218759 0
  outer loop
   vertex 0.0069499998353421688 0.00055000005522742867 0.05000000074505806
   vertex 0.007036824245005846 0.00055759638780727983 9.1743428918868852e-20
   vertex 0.007036824245005846 0.00055759638780727983 0.05000000074505806
  endloop
 endfacet
 facet normal 0.25881905207529521 -0.96592582442071906 0
  outer loop
   vertex 0.007036824245005846 0.00055759638780727983 0.05000000074505806
   vertex 0.007036824245005846 0.00055759638780727983 9.1743428918868852e-20
   vertex 0.0071210102178156376 0.00058015395188704133 7.3050387846089257e-20
  endloop
 endfacet
 facet normal 0.25881905207529521 -0.96592582442071906 0
  outer loop
   vertex 0.007036824245005846 0.00055759638780727983 0.05000000074505806
   vertex 0.0071210102178156376 0.00058015395188704133 7.3050387846089257e-20
   vertex 0.0071210102178156376 0.00058015395188704133 0.05000000074505806
  endloop
 endfacet
 facet normal 0.42261693749732193 -0.90630840454030037 0
  outer loop
   vertex 0.0071210102178156376 0.00058015395188704133 0.05000000074505806
   vertex 0.0071210102178156376 0.00058015395188704133 7.3050387846089257e-20
   vertex 0.0071999998763203621 0.0006169872940517962 5.5511160330244565e-20
  endloop
 endfacet
 facet normal 0.42261693749732193 -0.90630840454030037 0
  outer loop
   vertex 0.0071210102178156376 0.00058015395188704133 0.05000000074505806
   vertex 0.0071999998763203621 0.0006169872940517962 5.5511160330244565e-20
   vertex 0.0071999998763203621 0.0006169872940517962 0.05000000074505806
  endloop
 endfacet
 facet normal 0.57357744328092597 -0.81915133922817707 0
  outer loop
   vertex 0.0071999998763203621 0.0006169872940517962 0.05000000074505806
   vertex 0.0071999998763203621 0.0006169872940517962 5.5511160330244565e-20
   vertex 0.0072713936679065228 0.00066697789588943124 3.9658554083395497e-20
  endloop
 endfacet
 facet normal 0.57357744328092597 -0.81915133922817707 0
  outer loop
   vertex 0.0071999998763203621 0.0006169872940517962 0.05000000074505806
   vertex 0.0072713936679065228 0.00066697789588943124 3.9658554083395497e-20
   vertex 0.0072713936679065228 0.00066697789588943124 0.05000000074505806
  endloop
 endfacet
 facet normal 0.70710678118654746 -0.70710678118654746 0
  outer loop
   vertex 0.0072713936679065228 0.00066697789588943124 0.05000000074505806
   vertex 0.0072713936679065228 0.00066697789588943124 3.9658554083395497e-20
   vertex 0.0073330220766365528 0.0007286063046194613 2.5974298414777622e-20
  endloop
 endfacet
 facet normal 0.70710678118654746 -0.70710678118654746 0
  outer loop
   vertex 0.0072713936679065228 0.00066697789588943124 0.05000000074505806
   vertex 0.0073330220766365528 0.0007286063046194613 2.5974298414777622e-20
   vertex 0.0073330220766365528 0.0007286063046194613 0.05000000074505806
  endloop
 endfacet
 facet normal 0.81915133922817707 -0.57357744328092597 0
  outer loop
   vertex 0.0073330220766365528 0.0007286063046194613 0.05000000074505806
   vertex 0.0073330220766365528 0.0007286063046194613 2.5974298414777622e-20
   vertex 0.0073830126784741879 0.00080000009620562196 1.4874154979775405e-20
  endloop
 endfacet
 facet normal 0.81915133922817707 -0.57357744328092597 0
  outer loop
   vertex 0.0073330220766365528 0.0007286063046194613 0.05000000074505806
   vertex 0.0073830126784741879 0.00080000009620562196 1.4874154979775405e-20
   vertex 0.0073830126784741879 0.00080000009620562196 0.05000000074505806
  endloop
 endfacet
 facet normal 0.90630731237254647 -0.42261927965966178 0
  outer loop
   vertex 0.0073830126784741879 0.00080000009620562196 0.05000000074505806
   vertex 0.0073830126784741879 0.00080000009620562196 1.4874154979775405e-20
   vertex 0.00741984648630023 0.00087899022037163377 6.6954066731573443e-21
  endloop
 endfacet
 facet normal 0.90630731237254647 -0.42261927965966178 0
  outer loop
   vertex 0.0073830126784741879 0.00080000009620562196 0.05000000074505806
   vertex 0.00741984648630023 0.00087899022037163377 6.6954066731573443e-21
   vertex 0.00741984648630023 0.00087899022037163377 0.05000000074505806
  endloop
 endfacet
 facet normal 0.96592582442071906 -0.25881905207529521 0
  outer loop
   vertex 0.00741984648630023 0.00087899022037163377 0.05000000074505806
   vertex 0.00741984648630023 0.00087899022037163377 6.6954066731573443e-21
   vertex 0.0074424040503799915 0.00096317619318142533 1.6866212689956234e-21
  endloop
 endfacet
 facet normal 0.96592582442071906 -0.25881905207529521 0
  outer loop
   vertex 0.00741984648630023 0.00087899022037163377 0.05000000074505806
   vertex 0.0074424040503799915 0.00096317619318142533 1.6866212689956234e-21
   vertex 0.0074424040503799915 0.00096317619318142533 0.05000000074505806
  endloop
 endfacet
 facet normal 0.99619494613727766 -0.087152907527783582 0
  outer loop
   vertex 0.0074424040503799915 0.00096317619318142533 0.05000000074505806
   vertex 0.0074424040503799915 0.00096317619318142533 1.6866212689956234e-21
   vertex 0.0074499999172985554 0.0010500001953914762 0
  endloop
 endfacet
 facet normal 0.99619494613727766 -0.087152907527783582 0
  outer loop
   vertex 0.0074424040503799915 0.00096317619318142533 0.05000000074505806
   vertex 0.0074499999172985554 0.0010500001953914762 0
   vertex 0.0074499999172985554 0.0010500001953914762 0.05000000074505806
  endloop
 endfacet
 facet normal 0.99619498164668685 0.087152501639121485 -0
  outer loop
   vertex 0.0074499999172985554 0.0069499998353421688 0.05000000074505806
   vertex 0.0074499999172985554 0.0069499998353421688 0
   vertex 0.0074424040503799915 0.007036824245005846 1.6866212689956234e-21
  endloop
 endfacet
 facet normal 0.99619498164668685 0.087152501639121485 -0
  outer loop
   vertex 0.0074499999172985554 0.0069499998353421688 0.05000000074505806
   vertex 0.0074424040503799915 0.007036824245005846 1.6866212689956234e-21
   vertex 0.0074424040503799915 0.007036824245005846 0.05000000074505806
  endloop
 endfacet
 facet normal 0.96592582442071906 0.25881905207529521 -0
  outer loop
   vertex 0.0074424040503799915 0.007036824245005846 0.05000000074505806
   vertex 0.0074424040503799915 0.007036824245005846 1.6866212689956234e-21
   vertex 0.00741984648630023 0.0071210102178156376 6.6954066731573443e-21
  endloop
 endfacet
 facet normal 0.96592582442071906 0.25881905207529521 -0
  outer loop
   vertex 0.0074424040503799915 0.007036824245005846 0.05000000074505806
   vertex 0.00741984648630023 0.0071210102178156376 6.6954066731573443e-21
   vertex 0.00741984648630023 0.0071210102178156376 0.05000000074505806
  endloop
 endfacet
 facet normal 0.90630635809525928 0.42262132610187531 -0
  outer loop
   vertex 0.00741984648630023 0.0071210102178156376 0.05000000074505806
   vertex 0.00741984648630023 0.0071210102178156376 6.6954066731573443e-21
   vertex 0.0073830126784741879 0.0071999998763203621 1.4874154979775405e-20
  endloop
 endfacet
 facet normal 0.90630635809525928 0.42262132610187531 -0
  outer loop
   vertex 0.00741984648630023 0.0071210102178156376 0.05000000074505806
   vertex 0.0073830126784741879 0.0071999998763203621 1.4874154979775405e-20
   vertex 0.0073830126784741879 0.0071999998763203621 0.05000000074505806
  endloop
 endfacet
 facet normal 0.81915133922817707 0.57357744328092597 -0
  outer loop
   vertex 0.0073830126784741879 0.0071999998763203621 0.05000000074505806
   vertex 0.0073830126784741879 0.0071999998763203621 1.4874154979775405e-20
   vertex 0.0073330220766365528 0.0072713936679065228 2.5974298414777622e-20
  endloop
 endfacet
 facet normal 0.81915133922817707 0.57357744328092597 -0
  outer loop
   vertex 0.0073830126784741879 0.0071999998763203621 0.05000000074505806
   vertex 0.0073330220766365528 0.0072713936679065228 2.5974298414777622e-20
   vertex 0.0073330220766365528 0.0072713936679065228 0.05000000074505806
  endloop
 endfacet
 facet normal 0.70710678118654746 0.70710678118654746 -0
  outer loop
   vertex 0.0073330220766365528 0.0072713936679065228 0.05000000074505806
   vertex 0.0073330220766365528 0.0072713936679065228 2.5974298414777622e-20
   vertex 0.0072713936679065228 0.0073330220766365528 3.9658554083395497e-20
  endloop
 endfacet
 facet normal 0.70710678118654746 0.70710678118654746 -0
  outer loop
   vertex 0.0073330220766365528 0.0072713936679065228 0.05000000074505806
   vertex 0.0072713936679065228 0.0073330220766365528 3.9658554083395497e-20
   vertex 0.0072713936679065228 0.0073330220766365528 0.05000000074505806
  endloop
 endfacet
 facet normal 0.57357744328092597 0.81915133922817707 -0
  outer loop
   vertex 0.0072713936679065228 0.0073330220766365528 0.05000000074505806
   vertex 0.0072713936679065228 0.0073330220766365528 3.9658554083395497e-20
   vertex 0.0071999998763203621 0.0073830126784741879 5.5511160330244565e-20
  endloop
 endfacet
 facet normal 0.57357744328092597 0.81915133922817707 -0
  outer loop
   vertex 0.0072713936679065228 0.0073330220766365528 0.05000000074505806
   vertex 0.0071999998763203621 0.0073830126784741879 5.5511160330244565e-20
   vertex 0.0071999998763203621 0.0073830126784741879 0.05000000074505806
  endloop
 endfacet
 facet normal 0.42262132610187531 0.90630635809525928 -0
  outer loop
   vertex 0.0071999998763203621 0.0073830126784741879 0.05000000074505806
   vertex 0.0071999998763203621 0.0073830126784741879 5.5511160330244565e-20
   vertex 0.0071210102178156376 0.00741984648630023 7.3050387846089257e-20
  endloop
 endfacet
 facet normal 0.42262132610187531 0.90630635809525928 -0
  outer loop
   vertex 0.0071999998763203621 0.0073830126784741879 0.05000000074505806
   vertex 0.0071210102178156376 0.00741984648630023 7.3050387846089257e-20
   vertex 0.0071210102178156376 0.00741984648630023 0.05000000074505806
  endloop
 endfacet
 facet normal 0.25881905207529521 0.96592582442071906 -0
  outer loop
   vertex 0.0071210102178156376 0.00741984648630023 0.05000000074505806
   vertex 0.0071210102178156376 0.00741984648630023 7.3050387846089257e-20
   vertex 0.007036824245005846 0.0074424040503799915 9.1743428918868852e-20
  endloop
 endfacet
 facet normal 0.25881905207529521 0.96592582442071906 -0
  outer loop
   vertex 0.0071210102178156376 0.00741984648630023 0.05000000074505806
   vertex 0.007036824245005846 0.0074424040503799915 9.1743428918868852e-20
   vertex 0.007036824245005846 0.0074424040503799915 0.05000000074505806
  endloop
 endfacet
 facet normal 0.087152501639121485 0.99619498164668685 -0
  outer loop
   vertex 0.007036824245005846 0.0074424040503799915 0.05000000074505806
   vertex 0.007036824245005846 0.0074424040503799915 9.1743428918868852e-20
   vertex 0.0069499998353421688 0.0074499999172985554 1.1102232066048913e-19
  endloop
 endfacet
 facet normal 0.087152501639121485 0.99619498164668685 -0
  outer loop
   vertex 0.007036824245005846 0.0074424040503799915 0.05000000074505806
   vertex 0.0069499998353421688 0.0074499999172985554 1.1102232066048913e-19
   vertex 0.0069499998353421688 0.0074499999172985554 0.05000000074505806
  endloop
 endfacet
 facet normal -0.087152501639121485 0.99619498164668685 0
  outer loop
   vertex -0.0069499998353421688 0.0074499999172985554 0.05000000074505806
   vertex -0.0069499998353421688 0.0074499999172985554 3.1974422559956582e-18
   vertex -0.007036824245005846 0.0074424040503799915 3.2167211477372784e-18
  endloop
 endfacet
 facet normal -0.087152501639121485 0.99619498164668685 0
  outer loop
   vertex -0.0069499998353421688 0.0074499999172985554 0.05000000074505806
   vertex -0.007036824245005846 0.0074424040503799915 3.2167211477372784e-18
   vertex -0.007036824245005846 0.0074424040503799915 0.05000000074505806
  endloop
 endfacet
 facet normal -0.25881905207529521 0.96592582442071906 0
  outer loop
   vertex -0.007036824245005846 0.0074424040503799915 0.05000000074505806
   vertex -0.007036824245005846 0.0074424040503799915 3.2167211477372784e-18
   vertex -0.0071210102178156376 0.00741984648630023 3.235414188810058e-18
  endloop
 endfacet
 facet normal -0.25881905207529521 0.96592582442071906 0
  outer loop
   vertex -0.007036824245005846 0.0074424040503799915 0.05000000074505806
   vertex -0.0071210102178156376 0.00741984648630023 3.235414188810058e-18
   vertex -0.0071210102178156376 0.00741984648630023 0.05000000074505806
  endloop
 endfacet
 facet normal -0.42261927965966178 0.90630731237254647 0
  outer loop
   vertex -0.0071210102178156376 0.00741984648630023 0.05000000074505806
   vertex -0.0071210102178156376 0.00741984648630023 3.235414188810058e-18
   vertex -0.0072000003419816494 0.0073830126784741879 3.2529535197234793e-18
  endloop
 endfacet
 facet normal -0.42261927965966178 0.90630731237254647 0
  outer loop
   vertex -0.0071210102178156376 0.00741984648630023 0.05000000074505806
   vertex -0.0072000003419816494 0.0073830126784741879 3.2529535197234793e-18
   vertex -0.0072000003419816494 0.0073830126784741879 0.05000000074505806
  endloop
 endfacet
 facet normal -0.57357995361474612 0.81914958146318173 0
  outer loop
   vertex -0.0072000003419816494 0.0073830126784741879 0.05000000074505806
   vertex -0.0072000003419816494 0.0073830126784741879 3.2529535197234793e-18
   vertex -0.0072713936679065228 0.0073330220766365528 3.2688060225727518e-18
  endloop
 endfacet
 facet normal -0.57357995361474612 0.81914958146318173 0
  outer loop
   vertex -0.0072000003419816494 0.0073830126784741879 0.05000000074505806
   vertex -0.0072713936679065228 0.0073330220766365528 3.2688060225727518e-18
   vertex -0.0072713936679065228 0.0073330220766365528 0.05000000074505806
  endloop
 endfacet
 facet normal -0.70710678118654746 0.70710678118654746 0
  outer loop
   vertex -0.0072713936679065228 0.0073330220766365528 0.05000000074505806
   vertex -0.0072713936679065228 0.0073330220766365528 3.2688060225727518e-18
   vertex -0.0073330220766365528 0.0072713936679065228 3.2824902782413697e-18
  endloop
 endfacet
 facet normal -0.70710678118654746 0.70710678118654746 0
  outer loop
   vertex -0.0072713936679065228 0.0073330220766365528 0.05000000074505806
   vertex -0.0073330220766365528 0.0072713936679065228 3.2824902782413697e-18
   vertex -0.0073330220766365528 0.0072713936679065228 0.05000000074505806
  endloop
 endfacet
 facet normal -0.81915133922817707 0.57357744328092597 0
  outer loop
   vertex -0.0073330220766365528 0.0072713936679065228 0.05000000074505806
   vertex -0.0073330220766365528 0.0072713936679065228 3.2824902782413697e-18
   vertex -0.0073830126784741879 0.0071999998763203621 3.2935904216763719e-18
  endloop
 endfacet
 facet normal -0.81915133922817707 0.57357744328092597 0
  outer loop
   vertex -0.0073330220766365528 0.0072713936679065228 0.05000000074505806
   vertex -0.0073830126784741879 0.0071999998763203621 3.2935904216763719e-18
   vertex -0.0073830126784741879 0.0071999998763203621 0.05000000074505806
  endloop
 endfacet
 facet normal -0.90630635809525928 0.42262132610187531 0
  outer loop
   vertex -0.0073830126784741879 0.0071999998763203621 0.05000000074505806
   vertex -0.0073830126784741879 0.0071999998763203621 3.2935904216763719e-18
   vertex -0.00741984648630023 0.0071210102178156376 3.3017691699829899e-18
  endloop
 endfacet
 facet normal -0.90630635809525928 0.42262132610187531 0
  outer loop
   vertex -0.0073830126784741879 0.0071999998763203621 0.05000000074505806
   vertex -0.00741984648630023 0.0071210102178156376 3.3017691699829899e-18
   vertex -0.00741984648630023 0.0071210102178156376 0.05000000074505806
  endloop
 endfacet
 facet normal -0.96592582442071906 0.25881905207529521 0
  outer loop
   vertex -0.00741984648630023 0.0071210102178156376 0.05000000074505806
   vertex -0.00741984648630023 0.0071210102178156376 3.3017691699829899e-18
   vertex -0.0074424040503799915 0.007036824245005846 3.3067779553871517e-18
  endloop
 endfacet
 facet normal -0.96592582442071906 0.25881905207529521 0
  outer loop
   vertex -0.00741984648630023 0.0071210102178156376 0.05000000074505806
   vertex -0.0074424040503799915 0.007036824245005846 3.3067779553871517e-18
   vertex -0.0074424040503799915 0.007036824245005846 0.05000000074505806
  endloop
 endfacet
 facet normal -0.99619498164668685 0.087152501639121485 0
  outer loop
   vertex -0.0074424040503799915 0.007036824245005846 0.05000000074505806
   vertex -0.0074424040503799915 0.007036824245005846 3.3067779553871517e-18
   vertex -0.0074499999172985554 0.0069499998353421688 3.3084645766561473e-18
  endloop
 endfacet
 facet normal -0.99619498164668685 0.087152501639121485 0
  outer loop
   vertex -0.0074424040503799915 0.007036824245005846 0.05000000074505806
   vertex -0.0074499999172985554 0.0069499998353421688 3.3084645766561473e-18
   vertex -0.0074499999172985554 0.0069499998353421688 0.05000000074505806
  endloop
 endfacet
endsolid

###URDF_KITCHEN_METADATA_START###
<?xml version="1.0"?>
<urdf_part><material name="#ffffff"><color rgba="1.000000 1.000000 1.000000 1.0" /></material><link name="L_peg"><origin xyz="0.000000 0.000000 0.000000" rpy="0.000000 0.000000 0.000000" /><inertial><origin xyz="0.000000 0.000000 0.000000" /><mass value="0.000007" /><inertia ixx="0.00000000" ixy="-0.00000000" ixz="0.00000000" iyy="0.00000000" iyz="0.00000000" izz="0.00000000" /></inertial></link><point name="point1" type="fixed"><point_xyz>0.000000 0.000000 0.000000</point_xyz><joint_axis xyz="1 0 0" /></point></urdf_part>
###URDF_KITCHEN_METADATA_END###
